HIERARCHY
ROOT Hips
{
	OFFSET 0.000000 0.000000 0.000000
	CHANNELS 6 Xposition Yposition Zposition Zrotation Yrotation Xrotation 
	JOINT LHipJoint
	{
		OFFSET 0.000000 0.000000 0.000000
		CHANNELS 3 Zrotation Yrotation Xrotation
		JOINT LeftUpLeg
		{
			OFFSET 1.363060 -1.794630 0.839290
			CHANNELS 3 Zrotation Yrotation Xrotation
			JOINT LeftLeg
			{
				OFFSET 2.448110 -6.726130 0.000000
				CHANNELS 3 Zrotation Yrotation Xrotation
				JOINT LeftFoot
				{
					OFFSET 2.562200 -7.039590 0.000000
					CHANNELS 3 Zrotation Yrotation Xrotation
					JOINT LeftToeBase
					{
						OFFSET 0.157640 -0.433110 2.322550
						CHANNELS 3 Zrotation Yrotation Xrotation
						End Site
						{
							OFFSET 0.000000 0.000000 0.000000
						}
					}
				}
			}
		}
	}
	JOINT RHipJoint
	{
		OFFSET 0.000000 0.000000 0.000000
		CHANNELS 3 Zrotation Yrotation Xrotation
		JOINT RightUpLeg
		{
			OFFSET -1.305520 -1.794630 0.839290
			CHANNELS 3 Zrotation Yrotation Xrotation
			JOINT RightLeg
			{
				OFFSET -2.542530 -6.985550 0.000000
				CHANNELS 3 Zrotation Yrotation Xrotation
				JOINT RightFoot
				{
					OFFSET -2.568260 -7.056230 0.000000
					CHANNELS 3 Zrotation Yrotation Xrotation
					JOINT RightToeBase
					{
						OFFSET -0.164730 -0.452590 2.363150
						CHANNELS 3 Zrotation Yrotation Xrotation
						End Site
						{
							OFFSET 0.000000 0.000000 0.000000
						}
					}
				}
			}
		}
	}
	JOINT LowerBack
	{
		OFFSET 0.000000 0.000000 0.000000
		CHANNELS 3 Zrotation Yrotation Xrotation
		JOINT Spine
		{
			OFFSET 0.028270 2.035590 -0.193380
			CHANNELS 3 Zrotation Yrotation Xrotation
			JOINT Spine1
			{
				OFFSET 0.056720 2.048850 -0.042750
				CHANNELS 3 Zrotation Yrotation Xrotation
				JOINT Neck
				{
					OFFSET 0.000000 0.000000 0.000000
					CHANNELS 3 Zrotation Yrotation Xrotation
					JOINT Neck1
					{
						OFFSET -0.054170 1.746240 0.172020
						CHANNELS 3 Zrotation Yrotation Xrotation
						JOINT Head
						{
							OFFSET 0.104070 1.761360 -0.123970
							CHANNELS 3 Zrotation Yrotation Xrotation
							End Site
							{
								OFFSET 0.000000 0.000000 0.000000
							}
						}
					}
				}
				JOINT LeftShoulder
				{
					OFFSET 0.000000 0.000000 0.000000
					CHANNELS 3 Zrotation Yrotation Xrotation
					JOINT LeftArm
					{
						OFFSET 3.362410 1.200890 -0.311210
						CHANNELS 3 Zrotation Yrotation Xrotation
						JOINT LeftForeArm
						{
							OFFSET 4.983000 -0.000000 -0.000000
							CHANNELS 3 Zrotation Yrotation Xrotation
							JOINT LeftHand
							{
								OFFSET 3.483560 -0.000000 -0.000000
								CHANNELS 3 Zrotation Yrotation Xrotation
								JOINT LeftFingerBase
								{
									OFFSET 0.000000 0.000000 0.000000
									CHANNELS 3 Zrotation Yrotation Xrotation
									JOINT LeftHandIndex1
									{
										OFFSET 0.715260 -0.000000 -0.000000
										CHANNELS 3 Zrotation Yrotation Xrotation
										End Site
										{
											OFFSET 0.000000 0.000000 0.000000
										}
									}
								}
								JOINT LThumb
								{
									OFFSET 0.000000 0.000000 0.000000
									CHANNELS 3 Zrotation Yrotation Xrotation
									End Site
									{
										OFFSET 0.000000 0.000000 0.000000
									}
								}
							}
						}
					}
				}
				JOINT RightShoulder
				{
					OFFSET 0.000000 0.000000 0.000000
					CHANNELS 3 Zrotation Yrotation Xrotation
					JOINT RightArm
					{
						OFFSET -3.136600 1.374050 -0.404650
						CHANNELS 3 Zrotation Yrotation Xrotation
						JOINT RightForeArm
						{
							OFFSET -5.241900 -0.000000 -0.000000
							CHANNELS 3 Zrotation Yrotation Xrotation
							JOINT RightHand
							{
								OFFSET -3.444170 -0.000000 -0.000000
								CHANNELS 3 Zrotation Yrotation Xrotation
								JOINT RightFingerBase
								{
									OFFSET 0.000000 0.000000 0.000000
									CHANNELS 3 Zrotation Yrotation Xrotation
									JOINT RightHandIndex1
									{
										OFFSET -0.622530 -0.000000 -0.000000
										CHANNELS 3 Zrotation Yrotation Xrotation
										End Site
										{
											OFFSET 0.000000 0.000000 0.000000
										}
									}
								}
								JOINT RThumb
								{
									OFFSET 0.000000 0.000000 0.000000
									CHANNELS 3 Zrotation Yrotation Xrotation
									End Site
									{
										OFFSET 0.000000 0.000000 0.000000
									}
								}
							}
						}
					}
				}
			}
		}
	}
}
MOTION
Frames: 7
Frame Time: 0.008333
4.120061 17.659908 -9.348344 -4.666519 -24.610262 17.799473 5.157649 0.588733 -1.763494 -5.990566 -23.218526 -13.071660 -2.312698 7.042323 17.300329 -3.595351 19.656094 -11.617231 2.946200 -10.607500 -30.967400 -8.498684 -1.117906 -2.152302 25.008773 10.931739 -20.412413 2.146301 -6.775890 15.699087 0.410177 -8.488835 -4.361146 -0.372200 3.918500 -10.847400 6.457161 0.124094 14.403175 -0.128813 1.136696 -0.499954 -7.831054 0.645323 4.244555 -4.040208 2.723190 -15.388048 -0.444316 5.362830 22.222149 -1.604600 1.379400 18.409800 3.571114 -1.779442 -0.148808 -90.890652 -34.431005 100.273620 61.138034 -53.120477 -36.423698 -0.079179 -0.646096 16.178531 27.547816 35.414812 17.046100 -7.125000 0.000000 0.000000 -9.137000 69.270700 -5.327400 -3.369809 1.087057 -0.568340 35.451076 42.241286 51.182361 -58.018665 55.447749 -32.982208 -0.036005 -0.781945 5.139714 -14.738887 32.948683 -8.336600 7.125000 0.000000 0.000000 9.753500 4.222400 10.595100 
4.111703 17.657918 -9.356901 -4.704321 -24.464516 17.841228 5.161692 0.576950 -1.779288 -5.862321 -23.122344 -13.208105 -2.298390 7.054532 17.319255 -3.549587 19.434668 -11.486992 2.935200 -10.589400 -30.907300 -8.500248 -1.119163 -2.169527 25.138016 10.667914 -20.659211 2.120707 -6.870697 15.928346 0.395190 -8.302967 -4.411251 -0.336700 3.728800 -10.314800 6.634418 0.241514 14.542723 -0.103859 1.315080 -0.443209 -7.797750 0.741992 4.358732 -4.174668 2.557134 -15.449914 -0.482725 5.186659 22.205903 -1.618500 1.291300 18.396000 3.574305 -1.770541 -0.148866 -91.260523 -34.641387 100.695597 61.261571 -53.152009 -36.540033 -0.075327 -0.656030 16.153303 27.111076 35.781488 16.884700 -7.125000 0.000000 0.000000 -10.124100 69.500800 -5.959100 -3.360269 1.093015 -0.554934 34.465837 41.971884 50.817028 -58.575360 55.580845 -33.442971 -0.026446 -0.776506 4.995363 -15.055656 32.818618 -8.495100 7.125000 0.000000 0.000000 9.559500 4.142900 10.366200 
4.103545 17.658415 -9.364961 -4.676193 -24.336817 17.885522 5.163463 0.564235 -1.789136 -5.787502 -23.075045 -13.310862 -2.300491 7.034211 17.252694 -3.505093 19.232576 -11.450975 2.819800 -10.397400 -30.273500 -8.499678 -1.112965 -2.174025 25.140442 10.602336 -20.838823 2.107620 -6.937327 16.077151 0.392708 -8.272462 -4.455645 -0.308500 3.571000 -9.872700 6.780321 0.330046 14.708873 -0.091663 1.457703 -0.424020 -7.793203 0.815415 4.336844 -4.347085 2.432970 -15.403405 -0.483679 5.065305 22.179841 -1.589300 1.222000 18.342000 3.575261 -1.768472 -0.151433 -91.571278 -34.760390 101.076520 61.326789 -53.165794 -36.605657 -0.069308 -0.665346 16.031181 26.658747 35.874459 16.607000 -7.125000 0.000000 0.000000 -10.853800 69.453100 -6.380500 -3.356179 1.106291 -0.547525 33.690563 41.632780 50.462067 -59.165048 55.721362 -33.936044 -0.026826 -0.770197 4.826587 -14.964479 32.757078 -8.425600 7.125000 0.000000 0.000000 9.604200 4.059700 10.403000 
4.095983 17.659908 -9.368941 -4.504065 -24.211414 17.884320 5.158043 0.547727 -1.798982 -5.859630 -23.131317 -13.389302 -2.312411 7.018486 17.175197 -3.481870 19.161402 -11.359162 2.808100 -10.377800 -30.209100 -8.495578 -1.099078 -2.183361 24.968149 10.578468 -21.025319 2.089747 -7.023163 16.281573 0.402090 -8.351681 -4.557779 -0.291600 3.472800 -9.597900 6.725798 0.402297 14.768042 -0.059411 1.552994 -0.390132 -7.627806 0.853434 4.386414 -4.538804 2.354667 -15.322033 -0.568767 5.029944 22.148880 -1.614100 1.178600 18.277400 3.589252 -1.765682 -0.149437 -91.945250 -34.888212 101.430413 61.411770 -53.191543 -36.683538 -0.066691 -0.669036 15.711901 26.674144 35.814901 16.597100 -7.125000 0.000000 0.000000 -10.773900 69.404100 -6.321300 -3.343443 1.102256 -0.531051 32.864403 41.379352 50.144392 -59.747568 55.858703 -34.426493 -0.022942 -0.763032 4.443146 -14.794178 32.667715 -8.304800 7.125000 0.000000 0.000000 9.688900 3.934100 10.477500 
4.085734 17.659510 -9.369438 -4.334584 -24.077619 17.861550 5.156141 0.536211 -1.809203 -5.959248 -23.178827 -13.419352 -2.325117 6.994003 17.083034 -3.473108 19.150461 -11.180391 2.904300 -10.538600 -30.739000 -8.484434 -1.094061 -2.197148 24.825090 10.457616 -21.187522 2.066204 -7.110412 16.504436 0.407942 -8.375247 -4.664786 -0.284900 3.432600 -9.485700 6.738480 0.442377 14.777194 -0.055368 1.602571 -0.339537 -7.616215 0.885392 4.516177 -4.569947 2.325738 -15.282863 -0.702851 5.017076 22.140546 -1.701800 1.163500 18.250000 3.596458 -1.763092 -0.142263 -92.136929 -35.092813 101.714910 61.482713 -53.211335 -36.750281 -0.066459 -0.671116 15.405262 26.882326 35.810268 16.741300 -7.125000 0.000000 0.000000 -10.486600 69.470200 -6.167000 -3.331151 1.086792 -0.516984 32.058416 41.236558 49.943687 -60.454837 56.028778 -35.013748 -0.012414 -0.755966 4.138512 -14.950523 32.459147 -8.351100 7.125000 0.000000 0.000000 9.575300 3.747100 10.321900 
4.073496 17.657520 -9.371627 -4.268695 -23.935743 17.844232 5.156318 0.532081 -1.816867 -5.963897 -23.122911 -13.447700 -2.327388 6.966845 17.006109 -3.440851 19.006359 -10.978684 2.954100 -10.620400 -31.010100 -8.478627 -1.096512 -2.210062 24.822355 10.300161 -21.306925 2.045639 -7.181060 16.689535 0.406139 -8.325418 -4.746827 -0.300500 3.524900 -9.743800 6.826480 0.420219 14.846709 -0.044444 1.582074 -0.297764 -7.631777 0.884019 4.601256 -4.590478 2.359755 -15.287120 -0.803882 5.093574 22.139569 -1.756200 1.181700 18.249000 3.603508 -1.764485 -0.132952 -92.134021 -35.263010 101.714265 61.629074 -53.246205 -36.880469 -0.064239 -0.672128 15.202470 27.014746 35.761936 16.814900 -7.125000 0.000000 0.000000 -10.258000 69.466800 -6.030700 -3.320643 1.075106 -0.504390 31.264095 41.241737 49.925776 -61.319975 56.230166 -35.722497 -0.000641 -0.750895 3.912496 -15.274068 32.283026 -8.501100 7.125000 0.000000 0.000000 9.370900 3.623300 10.076600 
4.064839 17.655828 -9.376105 -4.239626 -23.793438 17.840943 5.159374 0.525122 -1.824330 -5.928435 -23.060551 -13.525431 -2.321324 6.960558 16.979181 -3.406730 18.850022 -10.767945 2.996100 -10.688800 -31.237300 -8.477178 -1.098075 -2.216820 24.848020 10.188561 -21.392904 2.037356 -7.217848 16.782287 0.407801 -8.332589 -4.816224 -0.313100 3.596900 -9.945400 6.937634 0.366799 14.994520 -0.022593 1.531516 -0.284075 -7.633060 0.862414 4.567994 -4.594360 2.419634 -15.260058 -0.910185 5.195589 22.121671 -1.816300 1.211400 18.240500 3.615335 -1.773406 -0.126511 -92.029329 -35.236178 101.486477 62.019066 -53.344293 -37.226179 -0.057201 -0.673284 15.123657 27.088662 35.714025 16.844300 -7.125000 0.000000 0.000000 -10.117700 69.442900 -5.942300 -3.307779 1.070735 -0.496832 30.745121 41.348753 50.012293 -61.605664 56.286018 -35.944729 0.010335 -0.752077 3.731991 -15.733505 32.337612 -8.782800 7.125000 0.000000 0.000000 9.116500 3.759700 9.816500 
